<?xml version="1.0" encoding="UTF-8"?>
<svg width="287px" height="31px" viewBox="0 0 287 31" version="1.1" xmlns="http://www.w3.org/2000/svg" xmlns:xlink="http://www.w3.org/1999/xlink">
    <!-- Generator: Sketch 49.3 (51167) - http://www.bohemiancoding.com/sketch -->
    <title>low pannel</title>
    <desc>Created with Sketch.</desc>
    <defs></defs>
    <g id="Page-1" stroke="none" stroke-width="1" fill="none" fill-rule="evenodd">
        <g id="Messenger-Dialogd" transform="translate(-905.000000, -544.000000)">
            <g id="Group-10-Copy" transform="translate(705.000000, 62.000000)">
                <g id="phone" transform="translate(109.000000, 0.000000)">
                    <g id="mockup-copy" transform="translate(91.000000, 49.000000)">
                        <g id="Group-27" transform="translate(0.000000, 1.000000)">
                            <g id="low-pannel" transform="translate(0.000000, 431.000000)">
                                <path d="M0.5,1.5 L286.56293,1.5" id="Line" stroke="#DFDFDF" stroke-linecap="square"></path>
                                <path d="M46.025,26.6383024 L41.540625,26.6383024 L40.4078125,29.8648649 L38.93125,29.8648649 L43.0875,18.5914274 L44.478125,18.5914274 L48.634375,29.8648649 L47.1578125,29.8648649 L46.025,26.6383024 Z M41.9546875,25.4429899 L45.6109375,25.4429899 L43.8453125,20.4117399 L43.7203125,20.4117399 L41.9546875,25.4429899 Z M54.7515625,28.2320524 C55.2098981,27.8310087 55.4390625,27.3284096 55.4390625,26.7242399 L55.4390625,25.9508024 L53.1734375,26.0992399 C51.9442647,26.1825736 51.3296875,26.6409024 51.3296875,27.4742399 C51.3296875,27.896117 51.4911442,28.229447 51.8140625,28.4742399 C52.1265641,28.7138244 52.53281,28.8336149 53.0328125,28.8336149 C53.7255243,28.8336149 54.2984352,28.633096 54.7515625,28.2320524 Z M50.7515625,29.3336149 C50.2098931,28.8752792 49.9390625,28.2659103 49.9390625,27.5054899 C49.9390625,26.7554861 50.2046848,26.1669503 50.7359375,25.7398649 C51.2671902,25.3127794 52.0249951,25.0705943 53.009375,25.0133024 L55.4390625,24.8648649 L55.4390625,24.0992399 C55.4390625,23.0263178 54.8036522,22.4898649 53.5328125,22.4898649 C52.4650988,22.4898649 51.8322927,22.8388197 51.634375,23.5367399 L50.275,23.5367399 C50.3635421,22.8648615 50.712497,22.3232003 51.321875,21.9117399 C51.9260447,21.5002795 52.6786413,21.2945524 53.5796875,21.2945524 C54.6005259,21.2945524 55.3921847,21.5419457 55.9546875,22.0367399 C56.5067736,22.531534 56.7828125,23.2190271 56.7828125,24.0992399 L56.7828125,29.8648649 L55.5015625,29.8648649 L55.5015625,28.6226774 L55.3765625,28.6226774 C54.8140597,29.5497653 53.949485,30.0133024 52.7828125,30.0133024 C51.9546834,30.0133024 51.2776068,29.7867421 50.7515625,29.3336149 Z" id="Aa" fill="#ABABAB"></path>
                                <g id="attach" transform="translate(11.545614, 14.054737)" fill="#BEBEBE" stroke="#ABABAB" stroke-width="0.2">
                                    <path d="M5.23032255,17.7599797 C4.07743313,17.7599797 2.9245437,17.3429152 2.04643621,16.5092064 C0.291327437,14.8422092 0.291327437,12.1297142 2.04732118,10.4627169 L11.3022954,1.67347694 C12.5857173,0.455480567 14.6729095,0.455480567 15.9552252,1.67347694 C16.5835511,2.2701838 16.9258117,3.05493738 16.9258117,3.88948656 C16.9258117,4.72340541 16.5835511,5.50878931 15.96142,6.09898282 L7.42194079,14.2078929 L7.30866515,14.3039123 C6.58454174,14.9825613 5.41351051,14.9791996 4.69182075,14.2948777 L4.67456392,14.2784893 C4.32809974,13.9492499 4.13451343,13.5061321 4.13451343,13.0350698 C4.13451343,12.5646379 4.32809974,12.12152 4.67898875,11.7882886 L9.1148807,7.5754121 C9.28789155,7.41131771 9.56776204,7.41131771 9.74077289,7.5754121 C9.9135625,7.73950648 9.9135625,8.00550328 9.74077289,8.16959767 L5.30465969,12.3824742 C5.12058677,12.5572841 5.01947941,12.7888232 5.01947941,13.0357001 C5.01947941,13.2819468 5.12058677,13.5143263 5.30465969,13.6882957 L5.32191653,13.7046842 C5.69692086,14.0608173 6.31396339,14.0608173 6.69250759,13.7006921 L15.335749,5.50479725 C15.7901791,5.07302521 16.0408457,4.49943023 16.0408457,3.88948656 C16.0408457,3.27975299 15.7901791,2.7059479 15.335749,2.27438597 C14.3919328,1.37722459 12.865809,1.37722459 11.9279663,2.26850294 L2.67299212,11.0571126 C1.2625776,12.3965514 1.26169263,14.5764225 2.67210715,15.9150209 C4.08252168,17.2544597 6.37790218,17.2544597 7.78743174,15.9150209 L17.0424059,7.12578087 C17.2154168,6.96147637 17.4952873,6.96147637 17.6682981,7.12578087 C17.8410877,7.28987526 17.8410877,7.55566194 17.6682981,7.71996644 L8.41332393,16.5092064 C7.5361014,17.3429152 6.38321198,17.7599797 5.23032255,17.7599797 L5.23032255,17.7599797 Z" id="Fill-1"></path>
                                </g>
                                <g id="Group-8" transform="translate(233.500000, 12.000000)">
                                    <g id="Group-2" transform="translate(29.302150, 0.091228)">
                                        <path d="M4.60025589,15.0454575 C2.02220036,14.8037348 0,12.4821707 0,9.65321872 L0,6.80895274 L1.03866086,6.80895274 L1.03866086,9.95178808 C1.03866086,12.2659625 2.85974906,14.1422352 5.10585952,14.1422352 C7.35196998,14.1422352 9.17305819,12.2659625 9.17305819,9.95178808 L9.17305819,6.80895274 L10.0912283,6.80895274 L10.0912283,9.65321872 C10.0912283,12.435549 8.13513129,14.7270772 5.61756395,15.031819 L5.61756395,17.8094002 L8.63593376,17.8094002 L8.63593376,18.857012 L1.58188608,18.857012 L1.58188608,17.8094002 L4.60025589,17.8094002 L4.60025589,15.0454575 Z M8.15930892,9.76321796 C8.15930892,11.5609198 6.79374697,13.0176239 5.10890992,13.0176239 C3.42407287,13.0176239 2.05851092,11.5609198 2.05851092,9.76321796 L2.05851092,3.25492979 C2.05851092,1.45722798 3.42407287,0 5.10890992,0 C6.79374697,0 8.15930892,1.45722798 8.15930892,3.25492979 L8.15930892,9.76321796 Z" id="Siri-Mic" fill="#ABABAB"></path>
                                        <path d="M7.24173281,9.18955071 C7.24173281,10.7075864 6.28689618,11.937673 5.10881406,11.937673 L5.10881406,11.937673 C3.93073194,11.937673 2.97589531,10.7075864 2.97589531,9.18955071 L2.97589531,3.6937485 C2.97589531,2.17571283 3.93073194,0.945183916 5.10881406,0.945183916 L5.10881406,0.945183916 C6.28689618,0.945183916 7.24173281,2.17571283 7.24173281,3.6937485 L7.24173281,9.18955071 L7.24173281,9.18955071 Z" id="Shape" fill="#FFFFFF"></path>
                                    </g>
                                    <g id="Stickers" transform="translate(0.149713, 1.212476)" stroke="#ABABAB">
                                        <path d="M4.05025003,9.81295982 C4.05025003,9.81295982 5.20040679,12.115645 7.87774138,12.1113152 C10.555076,12.1069855 11.5778292,9.83039089 11.5778292,9.83039089" id="Path" stroke-linecap="round"></path>
                                        <circle id="Path" stroke-width="0.5" fill="#BEBEBE" cx="10.1477609" cy="5.84466108" r="1"></circle>
                                        <circle id="Path" stroke-width="0.5" fill="#BEBEBE" cx="5.39095298" cy="5.84466108" r="1"></circle>
                                        <circle id="Oval-203" cx="7.84873311" cy="7.84873311" r="7.84873311"></circle>
                                    </g>
                                </g>
                            </g>
                        </g>
                    </g>
                </g>
            </g>
        </g>
    </g>
</svg>