
<svg width="287px" height="49px" viewBox="0 0 287 49" version="1.1" xmlns="http://www.w3.org/2000/svg" xmlns:xlink="http://www.w3.org/1999/xlink">
    <!-- Generator: Sketch 49.3 (51167) - http://www.bohemiancoding.com/sketch -->
    <title>top panel</title>
    <desc>Created with Sketch.</desc>
    <defs></defs>
    <g id="Page-1" stroke="none" stroke-width="1" fill="none" fill-rule="evenodd">
        <g id="Messenger-Dialogd" transform="translate(-905.000000, -111.000000)">
            <g id="Group-10-Copy" transform="translate(705.000000, 62.000000)">
                <g id="phone" transform="translate(109.000000, 0.000000)">
                    <g id="mockup-copy" transform="translate(91.000000, 49.000000)">
                        <g id="top-panel">
                            <path d="M23,0 L264,0 C276.702549,-3.61798108e-14 287,10.2974508 287,23 L287,47 L0,49 L0,23 C-1.55561363e-15,10.2974508 10.2974508,5.88613412e-15 23,3.55271368e-15 Z" id="Rectangle-13-Copy-2" fill="#FFFFFF" opacity="0.95"></path>
                            <g transform="translate(13.000000, 15.000000)">
                                <g id="Video" transform="translate(217.000000, 5.000000)" fill="#BCBCBC">
                                    <path d="M39.6399695,3.335 L39.6399695,10.6683333 L35.539283,8.66833333 L35.539283,5.335 L39.6399695,3.335 Z M32.805492,2 C33.9379649,2 34.8558352,2.89533333 34.8558352,4 L34.8558352,10 C34.8558352,11.1046667 33.9379649,12 32.805492,12 L24.604119,12 C23.4716461,12 22.5537757,11.1046667 22.5537757,10 L22.5537757,4 C22.5537757,2.89533333 23.4716461,2 24.604119,2 L32.805492,2 Z" id="Combined-Shape"></path>
                                    <ellipse id="Oval-4" cx="44.4337461" cy="7.30293947" rx="2.39206712" ry="2.33333333"></ellipse>
                                    <path d="M4.37953318,9.74866667 C4.2811167,9.65466667 -1.35801068,4.148 0.86866209,1.57866667 C2.51645461,-0.322666667 3.03245767,0.458 3.27098093,0.662 C4.05983292,1.61926373 4.74896139,2.65080138 5.32815866,3.74133333 C5.44024409,4.22133333 4.50802136,5.29 4.57636613,5.69866667 C4.64471091,6.10733333 5.8154569,7.374 6.31232342,7.85933333 C6.80918993,8.34466667 8.10705721,9.48733333 8.52532723,9.55466667 C8.94359725,9.622 10.0384805,8.71333333 10.5305629,8.82133333 C11.6496716,9.38663611 12.7081152,10.0595297 13.6901419,10.83 C13.8951762,11.0666667 14.6954935,11.5673333 12.7476674,13.176 C10.1163936,15.3493333 4.47794966,9.84266667 4.37953318,9.74866667 Z" id="Combined-Shape"></path>
                                </g>
                                <g id="header">
                                    <path d="M66.7412109,7.04882813 C66.7412109,8.32943349 66.3515664,9.35025661 65.5722656,10.1113281 C64.7929649,10.8678423 63.7447983,11.2460938 62.4277344,11.2460938 C60.9967376,11.2460938 59.8665406,10.7812546 59.0371094,9.8515625 C58.2076781,8.92642767 57.7929688,7.6640705 57.7929688,6.06445312 C57.7929688,4.48762232 58.2099568,3.2298224 59.0439453,2.29101562 C59.8779339,1.35676616 60.9967378,0.889648438 62.4003906,0.889648438 C63.5397192,0.889648438 64.4944623,1.19042668 65.2646484,1.79199219 C66.0348346,2.3935577 66.4996737,3.19791163 66.6591797,4.20507812 L64.9023438,4.20507812 C64.5332013,3.04296294 63.6992252,2.46191406 62.4003906,2.46191406 C61.5390582,2.46191406 60.8577499,2.78319991 60.3564453,3.42578125 C59.8505834,4.06836259 59.5976562,4.94335384 59.5976562,6.05078125 C59.5976562,7.17188061 59.8551407,8.05598635 60.3701172,8.703125 C60.8805364,9.35026365 61.5755164,9.67382812 62.4550781,9.67382812 C63.207035,9.67382812 63.817706,9.4641948 64.2871094,9.04492188 C64.7565128,8.62564895 64.9980468,8.07650079 65.0117188,7.39746094 L65.0185547,7.19238281 L62.6464844,7.19238281 L62.6464844,5.81152344 L66.7412109,5.81152344 L66.7412109,7.04882813 Z M68.6074219,3.52148438 L70.2412109,3.52148438 L70.2412109,4.68359375 L70.3574219,4.68359375 C70.4622401,4.30989396 70.6946597,4.00227985 71.0546875,3.76074219 C71.42383,3.51920452 71.8453752,3.3984375 72.3193359,3.3984375 C72.6110041,3.3984375 72.8434236,3.42350235 73.0166016,3.47363281 L73.0166016,5.04589844 C72.8434236,4.98209604 72.5563171,4.95019531 72.1552734,4.95019531 C71.6083957,4.95019531 71.1640642,5.1074203 70.8222656,5.421875 C70.4759097,5.74088701 70.3027344,6.16015365 70.3027344,6.6796875 L70.3027344,11 L68.6074219,11 L68.6074219,3.52148438 Z M78.1845703,9.35253906 C78.5263689,9.05631362 78.6972656,8.69173394 78.6972656,8.25878906 L78.6972656,7.6640625 L77.0087891,7.7734375 C76.0790969,7.83268259 75.6142578,8.1699188 75.6142578,8.78515625 C75.6142578,9.09505363 75.7350248,9.34114492 75.9765625,9.5234375 C76.2135429,9.70117276 76.5234356,9.79003906 76.90625,9.79003906 C77.4166692,9.79003906 77.8427717,9.64420719 78.1845703,9.35253906 Z M74.6298828,10.5146484 C74.1650367,10.0999328 73.9326172,9.55534191 73.9326172,8.88085938 C73.9326172,8.20637684 74.1787085,7.67773629 74.6708984,7.29492188 C75.1585311,6.91210746 75.8580684,6.69335965 76.7695312,6.63867188 L78.6972656,6.52246094 L78.6972656,5.89355469 C78.6972656,5.13248317 78.2278693,4.75195312 77.2890625,4.75195312 C76.4687459,4.75195312 75.9788419,5.01171615 75.8193359,5.53125 L74.2197266,5.53125 C74.2880863,4.8704394 74.6093721,4.3463561 75.1835938,3.95898438 C75.7532581,3.56705533 76.4824174,3.37109375 77.3710938,3.37109375 C78.3281298,3.37109375 79.0686823,3.59212019 79.5927734,4.03417969 C80.1123073,4.47623919 80.3720703,5.09602466 80.3720703,5.89355469 L80.3720703,11 L78.7382812,11 L78.7382812,9.97460938 L78.6220703,9.97460938 C78.1800108,10.7402382 77.4417369,11.1230469 76.4072266,11.1230469 C75.6780562,11.1230469 75.0856143,10.9202494 74.6298828,10.5146484 Z M82.8671875,10.0771484 C82.3157525,9.38443664 82.0400391,8.44336532 82.0400391,7.25390625 C82.0400391,6.07356181 82.3180311,5.13476911 82.8740234,4.4375 C83.4254585,3.7447882 84.1728468,3.3984375 85.1162109,3.3984375 C85.6266302,3.3984375 86.0846334,3.51464728 86.4902344,3.74707031 C86.8867207,3.97949335 87.1852204,4.3007792 87.3857422,4.7109375 L87.5019531,4.7109375 L87.5019531,0.629882812 L89.1972656,0.629882812 L89.1972656,11 L87.5566406,11 L87.5566406,9.81738281 L87.4404297,9.81738281 C86.9892556,10.6878299 86.2145237,11.1230469 85.1162109,11.1230469 C84.1682895,11.1230469 83.4186225,10.7744175 82.8671875,10.0771484 Z M84.2753906,5.48339844 C83.9427067,5.91634331 83.7763672,6.5087853 83.7763672,7.26074219 C83.7763672,8.01725639 83.9427067,8.60969838 84.2753906,9.03808594 C84.6035173,9.4664735 85.0592419,9.68066406 85.6425781,9.68066406 C86.2259144,9.68066406 86.6861962,9.46419487 87.0234375,9.03125 C87.3561215,8.60286244 87.5224609,8.01269907 87.5224609,7.26074219 C87.5224609,6.51334262 87.3538428,5.92317925 87.0166016,5.49023438 C86.6793603,5.0572895 86.2213571,4.84082031 85.6425781,4.84082031 C85.0637992,4.84082031 84.6080746,5.05501088 84.2753906,5.48339844 Z M93.2236328,5.21679688 C92.8955062,5.54948083 92.7132163,5.98925508 92.6767578,6.53613281 L96.1972656,6.53613281 C96.1790364,5.98014045 96.0149755,5.53808758 95.7050781,5.20996094 C95.3951807,4.8818343 94.9850286,4.71777344 94.4746094,4.71777344 C93.9687475,4.71777344 93.5517595,4.88411292 93.2236328,5.21679688 Z M97.8173828,8.94238281 C97.6578768,9.62597998 97.2841826,10.163735 96.6962891,10.5556641 C96.1038382,10.9521504 95.3701216,11.1503906 94.4951172,11.1503906 C93.3968044,11.1503906 92.5332063,10.8063185 91.9042969,10.1181641 C91.2799448,9.43456689 90.9677734,8.49121695 90.9677734,7.28808594 C90.9677734,6.08495492 91.2822234,5.13021187 91.9111328,4.42382812 C92.5400422,3.7220017 93.3968045,3.37109375 94.4814453,3.37109375 C95.5478569,3.37109375 96.3841116,3.70605134 96.9902344,4.37597656 C97.5917999,5.04134447 97.8925781,5.96418681 97.8925781,7.14453125 L97.8925781,7.69140625 L92.6699219,7.69140625 L92.6699219,7.78027344 C92.6927084,8.40462552 92.870441,8.8968081 93.203125,9.25683594 C93.5403663,9.62142109 93.9869764,9.80371094 94.5429688,9.80371094 C95.3997439,9.80371094 95.9557279,9.51660443 96.2109375,8.94238281 L97.8173828,8.94238281 Z M99.7724609,11 L99.7724609,1.13574219 L101.836914,1.13574219 L104.803711,8.3203125 L104.926758,8.3203125 L107.893555,1.13574219 L109.958008,1.13574219 L109.958008,11 L108.317383,11 L108.317383,4.06152344 L108.22168,4.06152344 L105.494141,10.6171875 L104.236328,10.6171875 L101.508789,4.06152344 L101.413086,4.06152344 L101.413086,11 L99.7724609,11 Z M112.234375,3.52148438 L113.922852,3.52148438 L113.922852,11 L112.234375,11 L112.234375,3.52148438 Z M112.323242,2.03808594 C112.127278,1.86490799 112.029297,1.64160293 112.029297,1.36816406 C112.029297,1.0947252 112.127278,0.871420137 112.323242,0.698242188 C112.519207,0.520506924 112.769855,0.431640625 113.075195,0.431640625 C113.385093,0.431640625 113.63802,0.520506924 113.833984,0.698242188 C114.025392,0.871420137 114.121094,1.0947252 114.121094,1.36816406 C114.121094,1.64160293 114.025392,1.86490799 113.833984,2.03808594 C113.63802,2.2158212 113.385093,2.3046875 113.075195,2.3046875 C112.769855,2.3046875 112.519207,2.2158212 112.323242,2.03808594 Z M116.021484,3.52148438 L117.655273,3.52148438 L117.655273,4.71777344 L117.771484,4.71777344 C117.94922,4.29850051 118.245441,3.97037879 118.660156,3.73339844 C119.079429,3.49186077 119.567055,3.37109375 120.123047,3.37109375 C120.957035,3.37109375 121.599607,3.61262779 122.050781,4.09570312 C122.501955,4.57877846 122.727539,5.26692262 122.727539,6.16015625 L122.727539,11 L121.039062,11 L121.039062,6.56347656 C121.039062,5.41959063 120.524094,4.84765625 119.494141,4.84765625 C118.947263,4.84765625 118.514325,5.00943849 118.195312,5.33300781 C117.8763,5.65657714 117.716797,6.09407276 117.716797,6.64550781 L117.716797,11 L116.021484,11 L116.021484,3.52148438 Z M126.624023,5.21679688 C126.295897,5.54948083 126.113607,5.98925508 126.077148,6.53613281 L129.597656,6.53613281 C129.579427,5.98014045 129.415366,5.53808758 129.105469,5.20996094 C128.795571,4.8818343 128.385419,4.71777344 127.875,4.71777344 C127.369138,4.71777344 126.95215,4.88411292 126.624023,5.21679688 Z M131.217773,8.94238281 C131.058267,9.62597998 130.684573,10.163735 130.09668,10.5556641 C129.504229,10.9521504 128.770512,11.1503906 127.895508,11.1503906 C126.797195,11.1503906 125.933597,10.8063185 125.304688,10.1181641 C124.680335,9.43456689 124.368164,8.49121695 124.368164,7.28808594 C124.368164,6.08495492 124.682614,5.13021187 125.311523,4.42382812 C125.940433,3.7220017 126.797195,3.37109375 127.881836,3.37109375 C128.948248,3.37109375 129.784502,3.70605134 130.390625,4.37597656 C130.992191,5.04134447 131.292969,5.96418681 131.292969,7.14453125 L131.292969,7.69140625 L126.070312,7.69140625 L126.070312,7.78027344 C126.093099,8.40462552 126.270832,8.8968081 126.603516,9.25683594 C126.940757,9.62142109 127.387367,9.80371094 127.943359,9.80371094 C128.800134,9.80371094 129.356119,9.51660443 129.611328,8.94238281 L131.217773,8.94238281 Z M132.995117,3.52148438 L134.628906,3.52148438 L134.628906,4.68359375 L134.745117,4.68359375 C134.849935,4.30989396 135.082355,4.00227985 135.442383,3.76074219 C135.811525,3.51920452 136.233071,3.3984375 136.707031,3.3984375 C136.998699,3.3984375 137.231119,3.42350235 137.404297,3.47363281 L137.404297,5.04589844 C137.231119,4.98209604 136.944012,4.95019531 136.542969,4.95019531 C135.996091,4.95019531 135.55176,5.1074203 135.209961,5.421875 C134.863605,5.74088701 134.69043,6.16015365 134.69043,6.6796875 L134.69043,11 L132.995117,11 L132.995117,3.52148438 Z M139.400391,4.00683594 C139.956383,3.58300569 140.676428,3.37109375 141.560547,3.37109375 C142.449223,3.37109375 143.157875,3.55794084 143.686523,3.93164062 C144.219729,4.30989772 144.51595,4.83853827 144.575195,5.51757812 L142.982422,5.51757812 C142.85026,4.9433565 142.378585,4.65625 141.567383,4.65625 C141.175454,4.65625 140.854168,4.74055905 140.603516,4.90917969 C140.343749,5.07780032 140.213867,5.29654813 140.213867,5.56542969 C140.213867,5.96647336 140.583004,6.25130124 141.321289,6.41992188 L142.640625,6.72070312 C143.360681,6.88476645 143.887043,7.12630049 144.219727,7.4453125 C144.561525,7.77343914 144.732422,8.21093477 144.732422,8.7578125 C144.732422,9.47331087 144.433922,10.0520811 143.836914,10.4941406 C143.24902,10.9316428 142.485682,11.1503906 141.546875,11.1503906 C140.612626,11.1503906 139.867516,10.9589863 139.311523,10.5761719 C138.750974,10.1933575 138.438802,9.66243829 138.375,8.98339844 L140.049805,8.98339844 C140.222983,9.571292 140.735673,9.86523438 141.587891,9.86523438 C142.016278,9.86523438 142.364908,9.7786467 142.633789,9.60546875 C142.902671,9.43684812 143.037109,9.21354306 143.037109,8.93554688 C143.037109,8.52083126 142.693037,8.238282 142.004883,8.08789062 L140.678711,7.78027344 C139.270501,7.45670411 138.566406,6.75033097 138.566406,5.66113281 C138.566406,4.98665027 138.844398,4.4352235 139.400391,4.00683594 Z" id="GradeMiners" fill="#2C2C2C"></path>
                                    <path d="M62.0336148,21.5235492 L59.082458,21.5235492 L58.3369567,23.6469425 L57.3652344,23.6469425 L60.1004529,16.2279194 L61.01562,16.2279194 L63.7508385,23.6469425 L62.7791161,23.6469425 L62.0336148,21.5235492 Z M59.3549516,20.7369168 L61.7611213,20.7369168 L60.5991675,17.4258628 L60.5169053,17.4258628 L59.3549516,20.7369168 Z M68.6300159,19.8011842 C68.5546085,19.5098374 68.3986546,19.2750497 68.1621495,19.096814 C67.9016512,18.9014403 67.5811746,18.8037549 67.20071,18.8037549 C66.7037066,18.8037549 66.3078237,18.988843 66.0130493,19.3590248 C65.7217025,19.7292066 65.5760313,20.2279163 65.5760313,20.8551688 C65.5760313,21.4927041 65.7234163,22.0016964 66.0181907,22.382161 C66.3129651,22.7591981 66.7071342,22.9477137 67.20071,22.9477137 C67.9822049,22.9477137 68.4586354,22.6238095 68.6300159,21.9759914 L69.5246174,21.9759914 C69.4423548,22.5004156 69.2024257,22.9220052 68.8048231,23.2407729 C68.3866547,23.5766786 67.8536695,23.7446289 67.2058513,23.7446289 C66.427784,23.7446289 65.8091099,23.4841345 65.3498102,22.9631379 C64.8905106,22.4387137 64.6608642,21.7360643 64.6608642,20.8551688 C64.6608642,19.9914112 64.8905106,19.3007583 65.3498102,18.7831893 C65.8091099,18.2656203 66.4260703,18.0068397 67.20071,18.0068397 C67.8485281,18.0068397 68.3849409,18.1816452 68.8099645,18.5312613 C69.2041395,18.8603118 69.4423548,19.2836152 69.5246174,19.8011842 L68.6300159,19.8011842 Z M72.0850287,16.7214927 L72.0850287,18.1045261 L73.3703758,18.1045261 L73.3703758,18.844886 L72.0850287,18.844886 L72.0850287,21.9811328 C72.0850287,22.3067556 72.1501523,22.5432571 72.2804015,22.6906443 C72.4106506,22.8380315 72.6197317,22.911724 72.9076508,22.911724 C73.0276172,22.911724 73.1612919,22.9048689 73.3086791,22.8911585 L73.3086791,23.6366598 C73.1133054,23.6709358 72.9436413,23.6880736 72.7996817,23.6880736 C72.2272709,23.6880736 71.8176778,23.5732504 71.5708899,23.3436006 C71.324102,23.1139508 71.20071,22.7352057 71.20071,22.2073538 L71.20071,18.844886 L70.2701187,18.844886 L70.2701187,18.1045261 L71.20071,18.1045261 L71.20071,16.7214927 L72.0850287,16.7214927 Z M74.6762884,18.1045261 L75.5606071,18.1045261 L75.5606071,23.6469425 L74.6762884,23.6469425 L74.6762884,18.1045261 Z M74.6814297,16.7986135 C74.5614634,16.6752195 74.5014812,16.5295483 74.5014812,16.3615955 C74.5014812,16.190215 74.5614634,16.0445438 74.6814297,15.9245775 C74.8048237,15.8046112 74.9504949,15.7446289 75.1184477,15.7446289 C75.2898282,15.7446289 75.4354994,15.8046112 75.5554657,15.9245775 C75.6754321,16.0445438 75.7354143,16.190215 75.7354143,16.3615955 C75.7354143,16.5295483 75.6754321,16.6752195 75.5554657,16.7986135 C75.4354994,16.9185798 75.2898282,16.9785621 75.1184477,16.9785621 C74.9504949,16.9785621 74.8048237,16.9185798 74.6814297,16.7986135 Z M77.7097074,18.1045261 L79.2264169,22.6700788 L79.3086791,22.6700788 L80.8253886,18.1045261 L81.771404,18.1045261 L79.7199902,23.6469425 L78.8151058,23.6469425 L76.763692,18.1045261 L77.7097074,18.1045261 Z M84.0747459,19.2356315 C83.7902544,19.5338335 83.6308729,19.9280026 83.5965968,20.4181508 L86.6505814,20.4181508 C86.6402986,19.9280026 86.4997687,19.5338335 86.2289876,19.2356315 C85.9582065,18.9374295 85.6034542,18.7883307 85.1647202,18.7883307 C84.7225586,18.7883307 84.3592375,18.9374295 84.0747459,19.2356315 Z M87.5091932,22.2124952 C87.3755165,22.6923605 87.1047394,23.0659643 86.6968539,23.3333179 C86.2855408,23.6075266 85.7782622,23.7446289 85.175003,23.7446289 C84.4072185,23.7446289 83.798827,23.4858483 83.3498102,22.9682793 C82.9007934,22.4541379 82.6762884,21.7583437 82.6762884,20.8808757 C82.6762884,20.0068353 82.9025072,19.3093273 83.3549516,18.7883307 C83.807396,18.2673341 84.4140738,18.0068397 85.175003,18.0068397 C85.9222218,18.0068397 86.510048,18.2553376 86.9384992,18.752341 C87.3669503,19.2493443 87.5811727,19.9297146 87.5811727,20.7934721 L87.5811727,21.1328037 L83.5965968,21.1328037 L83.5965968,21.1739348 C83.6205901,21.7223523 83.7748302,22.1576521 84.0593218,22.4798474 C84.347241,22.8020427 84.7259861,22.9631379 85.1955686,22.9631379 C85.9119389,22.9631379 86.3883694,22.7129262 86.6248745,22.2124952 L87.5091932,22.2124952 Z M91.9410699,18.1045261 L92.7842575,18.1045261 L92.7842575,18.9785621 L92.8665197,18.9785621 C93.1612941,18.3307439 93.7508341,18.0068397 94.6351573,18.0068397 C95.2555545,18.0068397 95.7336988,18.1833589 96.0696046,18.5364027 C96.4055103,18.892874 96.5734606,19.4001526 96.5734606,20.0582536 L96.5734606,23.6469425 L95.6891418,23.6469425 L95.6891418,20.2741919 C95.6891418,19.2938956 95.253842,18.8037549 94.3832292,18.8037549 C93.8965087,18.8037549 93.5160498,18.942571 93.2418411,19.2202073 C92.9642047,19.4978437 92.8253886,19.8800164 92.8253886,20.3667369 L92.8253886,23.6469425 L91.9410699,23.6469425 L91.9410699,18.1045261 Z M101.678859,22.4027266 C101.963351,22.0428276 102.105594,21.5338353 102.105594,20.8757343 C102.105594,20.2176333 101.963351,19.7069272 101.678859,19.3436006 C101.394367,18.9837017 100.989916,18.8037549 100.465491,18.8037549 C99.9410672,18.8037549 99.5366154,18.9837017 99.2521238,19.3436006 C98.9676323,19.7069272 98.8253886,20.2176333 98.8253886,20.8757343 C98.8253886,21.5338353 98.9676323,22.0428276 99.2521238,22.4027266 C99.5366154,22.7660532 99.9410672,22.9477137 100.465491,22.9477137 C100.989916,22.9477137 101.394367,22.7660532 101.678859,22.4027266 Z M98.5940261,22.9785621 C98.1381541,22.4644207 97.9102215,21.7634851 97.9102215,20.8757343 C97.9102215,19.9845559 98.1381541,19.2836203 98.5940261,18.7729065 C99.0498982,18.2621928 99.6737137,18.0068397 100.465491,18.0068397 C101.257269,18.0068397 101.881085,18.2621928 102.336957,18.7729065 C102.792829,19.2836203 103.020761,19.9845559 103.020761,20.8757343 C103.020761,21.7634851 102.792829,22.4644207 102.336957,22.9785621 C101.877657,23.4892758 101.253842,23.7446289 100.465491,23.7446289 C99.6771413,23.7446289 99.0533258,23.4892758 98.5940261,22.9785621 Z M109.827959,23.6469425 L108.928216,23.6469425 L107.689142,19.3590248 L107.60688,19.3590248 L106.372946,23.6469425 L105.478345,23.6469425 L103.925646,18.1045261 L104.820247,18.1045261 L105.910222,22.5364027 L105.992484,22.5364027 L107.231558,18.1045261 L108.079887,18.1045261 L109.318962,22.5364027 L109.401224,22.5364027 L110.491198,18.1045261 L111.380659,18.1045261 L109.827959,23.6469425 Z" id="Active-now" fill="#8F8F8F"></path>
                                    <path d="M10,6.41382766 C10,6.5501002 9.93127148,6.70340681 9.82817869,6.80561122 L3.07560137,13.5 L9.82817869,20.1943888 C9.93127148,20.2965932 10,20.4498998 10,20.5861723 C10,20.7224449 9.93127148,20.8757515 9.82817869,20.9779559 L8.96907216,21.8296593 C8.86597938,21.9318637 8.71134021,22 8.57388316,22 C8.43642612,22 8.28178694,21.9318637 8.17869416,21.8296593 L0.171821306,13.8917836 C0.0687285223,13.7895792 0,13.6362725 0,13.5 C0,13.3637275 0.0687285223,13.2104208 0.171821306,13.1082164 L8.17869416,5.17034068 C8.28178694,5.06813627 8.43642612,5 8.57388316,5 C8.71134021,5 8.86597938,5.06813627 8.96907216,5.17034068 L9.82817869,6.02204409 C9.93127148,6.1242485 10,6.26052104 10,6.41382766 Z" id="-copy-2" fill="#D2D2D2"></path>
                                    <g id="Gm-logo" transform="translate(29.000000, 0.000000)" fill-rule="nonzero">
                                        <g id="Group" fill="#3F3F41">
                                            <path d="M13.2726531,0.0759183673 C13.8767347,1.07020408 14.4791837,2.0644898 15.0783673,3.06122449 C15.3322449,3.49061224 15.2457143,4.00897959 15.2530612,4.48408163 C15.2677551,5.71102041 15.2310204,6.93795918 15.2489796,8.16571429 C15.2702041,8.81714286 15.2669388,9.47020408 15.2653061,10.122449 C15.2612245,10.6563265 15.0595918,11.2008163 14.6783673,11.5795918 C13.8261224,12.3371429 12.3257143,12.2367347 11.6310204,11.3142857 C11.3134694,10.9110204 11.2661224,10.3763265 11.2653061,9.88163265 C11.2661224,7.81061224 11.2636735,5.73877551 11.2669388,3.66693878 C11.2661224,3.32 11.4718367,3.02693878 11.6408163,2.74040816 C12.1869388,1.85387755 12.6938776,0.942040816 13.2726531,0.0759183673 Z M12.9795918,1.85306122 C12.7183673,2.41632653 12.4040816,2.95183673 12.1314286,3.50938776 C12.9036735,3.51102041 13.6767347,3.51102041 14.4497959,3.50938776 C14.0636735,2.76734694 13.6742857,2.02693878 13.2865306,1.28571429 C13.1885714,1.47755102 13.0873469,1.66693878 12.9795918,1.85306122 Z M12.0546939,4.16326531 C12.0693878,5.41142857 12.0506122,6.66040816 12.0718367,7.90857143 C12.8710204,7.90857143 13.6702041,7.90857143 14.4702041,7.90857143 C14.4669388,6.66040816 14.477551,5.41142857 14.4644898,4.16326531 C13.6612245,4.16326531 12.8579592,4.16244898 12.0546939,4.16326531 Z M12.0669388,8.67265306 C12.082449,9.32489796 11.9812245,9.99265306 12.155102,10.6310204 C12.5036735,11.5346939 14.0318367,11.5363265 14.3853061,10.6359184 C14.5395918,9.99183673 14.4538776,9.32244898 14.4579592,8.6677551 C13.6604082,8.66693878 12.8636735,8.67673469 12.0669388,8.67265306 Z" id="Shape"></path>
                                            <path d="M2.74938776,0.238367347 C3.31428571,1.51591837 4.08653061,2.69959184 4.52979592,4.03102041 C4.85142857,5.11102041 4.51428571,6.28 3.88897959,7.1844898 C4.22530612,7.18285714 4.56163265,7.18367347 4.89795918,7.18367347 C4.89795918,8.81632653 4.89795918,10.4489796 4.89795918,12.0816327 C3.4555102,12.0816327 2.01387755,12.0816327 0.571428571,12.0816327 C0.571428571,10.4489796 0.571428571,8.81632653 0.571428571,7.18367347 C0.915102041,7.18367347 1.25959184,7.18285714 1.60408163,7.1844898 C1.00897959,6.4 0.692244898,5.38285714 0.852244898,4.40081633 C0.919183673,3.92244898 1.1355102,3.48489796 1.33387755,3.05061224 C1.77714286,2.09877551 2.26938776,1.17142857 2.74938776,0.238367347 Z M1.71510204,4.15673469 C1.4677551,4.96489796 1.57306122,5.9355102 2.17469388,6.56571429 C2.41061224,6.87346939 2.84163265,6.74204082 3.17469388,6.79755102 C3.60489796,6.17795918 4.0122449,5.44653061 3.86530612,4.66285714 C3.68163265,3.8155102 3.30530612,3.02612245 2.94612245,2.24244898 C2.94040816,2.80244898 2.92653061,3.36408163 2.94693878,3.92408163 C3.12816327,4.08816327 3.3322449,4.29877551 3.25142857,4.56816327 C3.17306122,4.98367347 2.57632653,5.12326531 2.32408163,4.78285714 C2.08408163,4.50938776 2.23591837,4.10040816 2.52897959,3.93795918 C2.53142857,3.35836735 2.53142857,2.77795918 2.52897959,2.19918367 C2.23183673,2.84 1.9322449,3.48326531 1.71510204,4.15673469 Z M1.30693878,7.91836735 C1.30530612,8.05387755 1.30530612,8.19020408 1.30612245,8.32653061 C2.25795918,8.32653061 3.21061224,8.32653061 4.16326531,8.32653061 C4.16326531,8.19020408 4.16326531,8.05387755 4.16326531,7.91836735 C3.21061224,7.91836735 2.25877551,7.91836735 1.30693878,7.91836735 Z M1.30612245,9.06122449 C1.30612245,9.82285714 1.30612245,10.5853061 1.30612245,11.3469388 C2.25877551,11.3469388 3.21061224,11.3469388 4.16326531,11.3469388 C4.16326531,10.5853061 4.16326531,9.82285714 4.16326531,9.06122449 C3.21061224,9.06122449 2.25877551,9.06122449 1.30612245,9.06122449 Z" id="Shape"></path>
                                            <path d="M0.919183673,13.715102 C1.44897959,13.4106122 2.16897959,13.36 2.68571429,13.7191837 C2.98122449,13.9183673 3.15428571,14.2383673 3.31510204,14.5469388 C2.98204082,14.6906122 2.64571429,14.8277551 2.31265306,14.9706122 C2.18693878,14.7885714 2.05632653,14.5265306 1.79428571,14.5453061 C1.49714286,14.5126531 1.29795918,14.8016327 1.25632653,15.0636735 C1.14285714,15.6930612 1.11346939,16.3640816 1.31918367,16.9771429 C1.42040816,17.3044898 1.86938776,17.4530612 2.13632653,17.2318367 C2.34530612,17.0685714 2.34367347,16.7804082 2.38122449,16.5428571 C2.21306122,16.5420408 2.04571429,16.5420408 1.87836735,16.5428571 C1.87673469,16.2473469 1.87673469,15.9518367 1.87755102,15.6563265 C2.40489796,15.6555102 2.9322449,15.6571429 3.45959184,15.6563265 C3.45142857,16.3567347 3.54938776,17.1281633 3.13061224,17.7404082 C2.57469388,18.6236735 1.09632653,18.6277551 0.51755102,17.7673469 C0.0424489796,17.0938776 0.0146938776,16.2269388 0.066122449,15.4342857 C0.12,14.7869388 0.342857143,14.0808163 0.919183673,13.715102 Z" id="Shape"></path>
                                            <path d="M3.8644898,18.284898 C3.86530612,16.722449 3.86693878,15.16 3.8644898,13.5983673 C4.6155102,13.6587755 5.45632653,13.4318367 6.12571429,13.8767347 C6.9044898,14.3861224 6.87265306,15.7061224 6.06204082,16.1738776 C6.28,16.7820408 6.56653061,17.3673469 6.7444898,17.9902041 C6.80571429,17.5306122 6.95673469,17.0897959 7.06285714,16.64 C7.32244898,15.6269388 7.58857143,14.6155102 7.84326531,13.6016327 C8.24897959,13.6016327 8.6555102,13.6008163 9.06204082,13.6016327 C9.4644898,15.1640816 9.87510204,16.7240816 10.28,18.2857143 C9.92,18.2857143 9.56,18.2832653 9.2,18.2897959 C9.1322449,18.0228571 9.07673469,17.7542857 9.0277551,17.484898 C8.64653061,17.4873469 8.26530612,17.4865306 7.88489796,17.4865306 C7.83020408,17.7542857 7.76734694,18.0204082 7.70040816,18.2865306 C7.06204082,18.284898 6.42367347,18.2865306 5.78612245,18.284898 C5.49632653,17.56 5.22204082,16.8285714 4.92081633,16.1085714 C4.90693878,16.8334694 4.91836735,17.5591837 4.91510204,18.284898 C4.56489796,18.2857143 4.21469388,18.2857143 3.8644898,18.284898 Z M4.91428571,15.6318367 C5.09061224,15.5934694 5.28816327,15.5942857 5.44081633,15.4865306 C5.66530612,15.3265306 5.65306122,14.995102 5.55346939,14.7673469 C5.44408163,14.5216327 5.1477551,14.5167347 4.92408163,14.4579592 C4.90857143,14.8481633 4.91673469,15.24 4.91428571,15.6318367 Z M8.07836735,16.6522449 C8.32326531,16.6530612 8.56897959,16.6530612 8.81469388,16.6522449 C8.67755102,15.9730612 8.52163265,15.2955102 8.46204082,14.6040816 C8.32653061,15.2857143 8.23510204,15.9746939 8.07836735,16.6522449 Z" id="Shape"></path>
                                            <path d="M10.3959184,18.284898 C10.3959184,16.7232653 10.397551,15.1608163 10.395102,13.5983673 C11.155102,13.6277551 12,13.475102 12.6628571,13.9461224 C13.3918367,14.4636735 13.5232653,15.4595918 13.4497959,16.2881633 C13.4130612,16.9542857 13.1404082,17.6669388 12.5338776,18.0106122 C11.882449,18.3804082 11.1110204,18.2702041 10.3959184,18.284898 Z M11.4465306,14.5706122 C11.4449796,15.48 11.4457143,16.3902041 11.4465306,17.3004082 C11.8146939,17.2734694 12.1796735,17.0497959 12.2538776,16.6661224 C12.3608163,16.124898 12.3820408,15.5322449 12.1812245,15.0097959 C12.0644898,14.7069388 11.755102,14.5689796 11.4465306,14.5706122 Z" id="Shape"></path>
                                            <path d="M13.7428571,18.284898 C13.7428571,16.722449 13.7444898,15.16 13.7420408,13.597551 C14.4506122,13.604898 15.16,13.6008163 15.8693878,13.6 C15.8669388,13.9281633 15.8661224,14.2563265 15.8710204,14.5844898 C15.5118367,14.5820408 15.1518367,14.5828571 14.7926531,14.5836735 C14.7926531,14.875102 14.7926531,15.1657143 14.7926531,15.4571429 C15.1036735,15.4571429 15.4155102,15.4579592 15.7265306,15.4571429 C15.7257143,15.7795918 15.7265306,16.1028571 15.7257143,16.4261224 C15.4146939,16.4244898 15.1036735,16.4244898 14.7926531,16.4261224 C14.7918367,16.7134694 14.7918367,17.0008163 14.7934694,17.2889796 C15.1510204,17.2889796 15.5094694,17.2889796 15.8677551,17.2881633 C15.8677551,17.6204082 15.8677551,17.9526531 15.8677551,18.2857143 C15.1591837,18.284898 14.4506122,18.2865306 13.7428571,18.284898 Z" id="Shape"></path>
                                        </g>
                                        <g id="Group" fill="#FFA401">
                                            <path d="M6.24,3.05387755 C6.82693878,2.06122449 7.40408163,1.06367347 7.99755102,0.0751020408 C8.51755102,1.0155102 9.08979592,1.92571429 9.63591837,2.85142857 C9.80653061,3.12081633 9.96734694,3.41714286 9.95836735,3.74693878 C9.96081633,6.52489796 9.95755102,9.30285714 9.95836735,12.0808163 C8.65306122,12.082449 7.34693878,12.0816327 6.04163265,12.0808163 C6.04,9.3044898 6.04163265,6.52816327 6.04,3.75265306 C6.03346939,3.5044898 6.11102041,3.26285714 6.24,3.05387755 Z M6.94693878,3.2644898 C6.80897959,3.51265306 6.8155102,3.80653061 6.80489796,4.08244898 C6.80979592,6.12408163 6.81387755,8.16571429 6.80734694,10.2081633 C6.81795918,10.5885714 6.77469388,10.9722449 6.84326531,11.3502041 C7.0922449,11.3461224 7.34204082,11.3461224 7.59183673,11.3469388 C7.59183673,8.84326531 7.59183673,6.34040816 7.59183673,3.83673469 C7.86367347,3.83673469 8.1355102,3.83428571 8.40816327,3.83428571 C8.40816327,6.33877551 8.40816327,8.84244898 8.40816327,11.3469388 C8.67346939,11.3510204 8.93959184,11.3477551 9.20571429,11.3330612 C9.21959184,8.88734694 9.20489796,6.44163265 9.21469388,3.99510204 C9.20244898,3.78612245 9.24571429,3.55673469 9.12653061,3.37061224 C8.72489796,2.68081633 8.36326531,1.96897959 7.96326531,1.27836735 C7.62530612,1.94040816 7.28734694,2.60326531 6.94693878,3.2644898 Z" id="Shape"></path>
                                            <path d="M14.6612245,19.88 C15.0995918,19.5804082 15.6636735,19.6571429 16.1330612,19.8367347 C16.1297959,20.1363265 16.1289796,20.4359184 16.1379592,20.7346939 C15.8285714,20.597551 15.4644898,20.4089796 15.1387755,20.6114286 C15.1167347,20.6661224 15.0726531,20.7763265 15.0497959,20.8310204 C15.164898,21.1942857 15.5191837,21.3722449 15.7885714,21.6057143 C16.1208163,21.9012245 16.4204082,22.3069388 16.3763265,22.7763265 C16.3812245,23.3404082 15.8955102,23.8146939 15.3534694,23.8906122 C15.0016327,23.9714286 14.6481633,23.8620408 14.3183673,23.7477551 C14.3167347,23.4334694 14.3183673,23.1191837 14.3134694,22.804898 C14.5828571,22.9493878 14.8946939,23.1412245 15.2097959,23.0457143 C15.4791837,22.9681633 15.4987755,22.5853061 15.2938776,22.4269388 C14.9257143,22.0897959 14.4734694,21.8089796 14.2636735,21.3363265 C14.0546939,20.837551 14.1861224,20.1787755 14.6612245,19.88 Z" id="Shape"></path>
                                            <path d="M0.481632653,19.7869388 C0.867755102,19.7869388 1.25387755,19.7869388 1.64081633,19.7861224 C1.77306122,20.5485714 1.93142857,21.3069388 2.01632653,22.0767347 C2.15918367,21.3134694 2.28081633,20.5461224 2.44244898,19.7869388 C2.83346939,19.7861224 3.22530612,19.7877551 3.61714286,19.7853061 C3.7755102,21.1355102 3.91755102,22.4873469 4.07755102,23.837551 C3.77632653,23.8367347 3.47510204,23.8367347 3.17387755,23.8367347 C3.08408163,22.8979592 3.05632653,21.9493878 2.89714286,21.0204082 C2.7755102,21.9673469 2.54612245,22.8979592 2.37714286,23.837551 C2.16326531,23.8367347 1.95020408,23.8359184 1.73714286,23.8334694 C1.55428571,22.8938776 1.33632653,21.9608163 1.16979592,21.0179592 C1.03755102,21.9518367 0.995102041,22.8971429 0.907755102,23.8367347 C0.620408163,23.8367347 0.333877551,23.8367347 0.0473469388,23.8367347 C0.191020408,22.4865306 0.336326531,21.1363265 0.481632653,19.7869388 Z" id="Shape"></path>
                                            <path d="M4.47265306,19.7877551 C4.77714286,19.7861224 5.08244898,19.7861224 5.38693878,19.7861224 C5.38857143,21.1363265 5.38693878,22.4865306 5.3877551,23.8367347 C5.08326531,23.837551 4.77877551,23.8367347 4.47428571,23.8367347 C4.47346939,22.4865306 4.47673469,21.1371429 4.47265306,19.7877551 Z" id="Shape"></path>
                                            <path d="M5.90857143,19.7853061 C6.2122449,19.7861224 6.51591837,19.7861224 6.82040816,19.7902041 C7.22040816,20.5746939 7.6244898,21.357551 8.0277551,22.1412245 C7.94204082,21.3591837 8.00326531,20.5706122 7.98367347,19.7861224 C8.28816327,19.7869388 8.59265306,19.7869388 8.89714286,19.7861224 C8.89877551,21.1363265 8.89714286,22.4865306 8.89795918,23.8367347 C8.59673469,23.8359184 8.2955102,23.8359184 7.99428571,23.8383673 C7.57877551,23.0718367 7.20816327,22.282449 6.78693878,21.52 C6.82122449,22.2914286 6.79755102,23.0644898 6.80408163,23.8367347 C6.50530612,23.8367347 6.20653061,23.8367347 5.90857143,23.835102 C5.91020408,22.484898 5.90938776,21.1355102 5.90857143,19.7853061 Z" id="Shape"></path>
                                            <path d="M9.33632653,19.7853061 C9.95755102,19.7877551 10.5787755,19.7861224 11.2,19.7861224 C11.1983673,20.0636735 11.1983673,20.3420408 11.2008163,20.6195918 C10.8791837,20.6220408 10.5567347,20.6212245 10.235102,20.6220408 C10.2318367,20.8767347 10.2326531,21.1314286 10.2318367,21.3869388 C10.5110204,21.3869388 10.7910204,21.3869388 11.0702041,21.3885714 C11.0693878,21.6702041 11.0693878,21.9526531 11.0718367,22.2359184 C10.7926531,22.2318367 10.5126531,22.2318367 10.2342857,22.2342857 C10.2326531,22.4857143 10.2318367,22.7379592 10.2334694,22.9902041 C10.555102,22.9918367 10.877551,22.9918367 11.1991837,22.9918367 C11.1983673,23.2734694 11.1991837,23.555102 11.1983673,23.8367347 C10.5779592,23.8367347 9.95755102,23.837551 9.33714286,23.8359184 C9.33795918,22.4857143 9.33877551,21.1355102 9.33632653,19.7853061 Z" id="Shape"></path>
                                            <path d="M11.5412245,19.7853061 C12.1959184,19.8342857 12.9314286,19.64 13.5142857,20.0318367 C14.1885714,20.4816327 14.1379592,21.6171429 13.4432653,22.0269388 C13.677551,22.6318367 13.9126531,23.2367347 14.1567347,23.837551 C13.8416327,23.835102 13.5265306,23.835102 13.2114286,23.8416327 C12.9412245,23.2228571 12.7183673,22.5844898 12.4465306,21.9665306 C12.4253061,22.5893878 12.4433469,23.2130612 12.4367347,23.8367347 C12.1379592,23.8367347 11.8391837,23.8367347 11.5404082,23.8359184 C11.5420408,22.4857143 11.5412245,21.1355102 11.5412245,19.7853061 Z M12.4408163,21.5510204 C12.6032653,21.5191837 12.7836735,21.5167347 12.922449,21.4146939 C13.1110204,21.2644898 13.0881633,20.9844898 13.0057143,20.7844898 C12.9061224,20.5746939 12.6383673,20.5804082 12.4481633,20.5191837 C12.4310204,20.8628571 12.4334694,21.2065306 12.4408163,21.5510204 Z" id="Shape"></path>
                                        </g>
                                    </g>
                                </g>
                            </g>
                        </g>
                    </g>
                </g>
            </g>
        </g>
    </g>
</svg>